<?xml version="1.0" encoding="iso-8859-1"?>
<!-- Uploaded to: SVG Repo, www.svgrepo.com, Generator: SVG Repo Mixer Tools -->
<svg height="800px" width="800px" version="1.1" id="Layer_1" xmlns="http://www.w3.org/2000/svg" xmlns:xlink="http://www.w3.org/1999/xlink" 
	 viewBox="0 0 512 512" xml:space="preserve">
<g>
	<path style="fill:#F3DDB9;" d="M501.331,106.666H10.669v298.668h490.663V106.666L501.331,106.666z M202.927,223.235
		c0,68.326-44.681,96.765-69.771,96.765s-69.768-28.44-69.768-96.765v-36.42c23.408-6.273,47.745-16.417,69.768-29.134
		c22.298,12.873,45.712,22.689,69.771,29.134V223.235z"/>
	<path style="fill:#E8863B;" d="M202.927,223.235v-36.42c-24.06-6.445-47.474-16.26-69.771-29.134
		c-22.023,12.717-46.36,22.86-69.768,29.134v36.42c0,68.326,44.677,96.765,69.768,96.765
		C158.246,320,202.927,291.56,202.927,223.235z"/>
</g>
<g>
	<path style="fill:#000003;" d="M501.331,95.997H10.669C4.777,95.997,0,100.774,0,106.666v298.668
		c0,5.892,4.777,10.669,10.669,10.669h490.663c5.892,0,10.669-4.776,10.669-10.669V106.666
		C512,100.774,507.225,95.997,501.331,95.997z M490.663,394.665H21.337V117.335h469.325V394.665z"/>
	<path style="fill:#000003;" d="M133.155,330.669c17.39,0,37.38-10.051,52.17-26.231c12.897-14.108,28.27-39.649,28.27-81.203
		v-36.42c0-4.829-3.243-9.056-7.907-10.305c-23.01-6.165-45.62-15.608-67.199-28.068c-3.302-1.906-7.367-1.905-10.67,0
		c-21.269,12.281-44.505,21.986-67.196,28.068c-4.663,1.25-7.906,5.476-7.906,10.305v36.42c0,41.554,15.372,67.095,28.268,81.203
		C95.775,320.618,115.765,330.669,133.155,330.669z M74.055,194.872c20.017-6.016,40.202-14.533,59.097-24.941
		c19.095,10.539,38.92,18.906,59.106,24.947v28.356c0,60.842-38.494,86.097-59.103,86.097c-20.608,0-59.099-25.255-59.099-86.097
		v-28.362H74.055z"/>
	<path style="fill:#000003;" d="M144.923,351.998H90.485c-5.891,0-10.669,4.776-10.669,10.669s4.777,10.669,10.669,10.669h54.437
		c5.892,0,10.669-4.776,10.669-10.669C155.592,356.774,150.815,351.998,144.923,351.998z"/>
	<path style="fill:#000003;" d="M175.825,352.002h-0.256c-5.892,0-10.669,4.776-10.669,10.669c0,5.892,4.776,10.669,10.669,10.669
		h0.256c5.891,0,10.669-4.776,10.669-10.669S181.716,352.002,175.825,352.002z"/>
	<path style="fill:#000003;" d="M277.668,185.512h147.836c5.891,0,10.669-4.776,10.669-10.669s-4.777-10.669-10.669-10.669H277.668
		c-5.891,0-10.669,4.776-10.669,10.669S271.775,185.512,277.668,185.512z"/>
	<path style="fill:#000003;" d="M277.668,270.843h147.836c5.891,0,10.669-4.776,10.669-10.669s-4.777-10.669-10.669-10.669H277.668
		c-5.891,0-10.669,4.776-10.669,10.669S271.775,270.843,277.668,270.843z"/>
	<path style="fill:#000003;" d="M277.668,313.507h147.836c5.891,0,10.669-4.776,10.669-10.669s-4.777-10.669-10.669-10.669H277.668
		c-5.891,0-10.669,4.776-10.669,10.669S271.775,313.507,277.668,313.507z"/>
	<path style="fill:#000003;" d="M425.503,206.839H308.566c-5.892,0-10.669,4.776-10.669,10.669s4.776,10.669,10.669,10.669h116.937
		c5.891,0,10.669-4.776,10.669-10.669S431.396,206.839,425.503,206.839z"/>
	<path style="fill:#000003;" d="M277.668,228.179h0.254c5.892,0,10.669-4.776,10.669-10.669s-4.776-10.669-10.669-10.669h-0.254
		c-5.891,0-10.669,4.776-10.669,10.669S271.775,228.179,277.668,228.179z"/>
	<path style="fill:#000003;" d="M425.503,351.998h-54.437c-5.892,0-10.669,4.776-10.669,10.669s4.776,10.669,10.669,10.669h54.437
		c5.891,0,10.669-4.776,10.669-10.669C436.172,356.774,431.396,351.998,425.503,351.998z"/>
</g>
</svg>